<?xml version="1.0" encoding="utf-8"?>
<!-- Generator: Adobe Illustrator 21.0.2, SVG Export Plug-In . SVG Version: 6.00 Build 0)  -->
<svg version="1.1" id="Layer_1" xmlns="http://www.w3.org/2000/svg" xmlns:xlink="http://www.w3.org/1999/xlink" x="0px" y="0px"
	 viewBox="0 0 512 512" style="enable-background:new 0 0 512 512;" xml:space="preserve">
<style type="text/css">
	.st0{fill:#FFFFFF;}
</style>
<g>
	<path class="st0" d="M293.1,494c0.2,0,0.3,0,0.5-0.1c0-0.1-0.1-0.2-0.1-0.2c-0.2,0-0.3,0-0.5,0C292.5,493.9,292.5,494,293.1,494z"
		/>
	<path class="st0" d="M484.2,335c9.5-19.7,16.7-40.3,20.9-62c3.6-19,4.8-38.1,0.5-57.2c-3.1-13.9-9.1-26.1-20.5-35.1
		c-5.4-4.3-11.6-5.8-18.4-4c-8.4,2.2-15,7.1-20.1,13.9c-4.9,6.5-7.7,14-11.1,21.3c-4,8.6-7.7,17.3-11.5,25.9
		c-7.1,16.4-14.2,32.9-23.5,48.3c-7,11.6-14.5,22.9-26.2,30.2c-13.4,8.4-27.1,7.3-37.5-6.2c-10-13-16.3-27.9-23.1-42.7
		c-5.6-12.2-11.2-24.6-19.8-35.2c-8.4-10.3-18.3-12.9-30.6-8c-10.7,4.3-19.3,11.5-27.4,19.4c-19.1,18.7-34.8,40.3-51.5,61
		c-11.2,13.8-22.4,27.6-35.7,39.5c-8,7.2-16.4,13.9-27.5,16.1c-10.2,2.1-19.3-1.4-25.3-8.8c-8.7-10.8-12.5-23.8-14.4-37.5
		c-3.2-22.8,0.6-44.8,7.7-66.1c9.5-28.7,25.6-53.5,46-75.6c2.4-2.6,4-2.4,6.9-0.6c23.5,14.8,49.3,20.3,76.8,19.6
		c23.5-0.7,46.1-6.2,68.3-12.9c28.2-8.5,55.5-19.7,83-30.1c9.4-3.5,18.6-7.8,28.2-10.5c13.4-3.7,26.6-7.7,40.4-10
		c15.4-2.5,30.6-5,46.2-2.4c2.9,0.5,5.9,0.9,9.9,1.5c-25.8-34.4-57.1-60.7-94.5-79.3C337,16,270.9,9.7,202.6,28.7
		C153,42.6,111,69.3,76,107c-25.3,27.2-44.3,58.4-57.1,94.2c0.1,0,0.2-0.1,0.3-0.1c-0.7,1.9-1.4,3.9-2.2,6c-0.4,0.5-0.6,1.2-0.6,1.8
		c-3.1,8.9-6.3,18.9-7.2,25.2c-0.1,0.6-0.1,1.2-0.1,1.8c-0.4,1.9-0.8,3.7-1.1,5.6c-4.1,23.8-5.4,47.7-3.2,71.8
		c1.8,20.3,6,40.1,12.4,59.4c6.3,18.9,14.7,36.9,25.2,53.9c4.2,6.7,8.2,13.6,13.6,19.5c-0.2-1.2-0.6-2.2-1.1-3.2
		c-6.1-11.8-11.1-24-15.1-36.6C33,384.8,28.6,362.8,27.5,340c-1.1-24.9,1-49.3,7.1-73.3c3.9-15.5,9.4-30.4,16-45
		c15.9-34.9,38.6-64.8,66.3-91c13.6-12.9,29.3-22.8,45.6-31.9c17.4-9.7,35.6-17.7,54.6-23.6c21-6.5,42.6-11,64.8-12.8
		c37.9-3,74.7,0.4,109.3,17.8c0.8,0.4,2.2,0.2,1.9,1.6c-0.3,1.6-1.8,1.3-2.7,1c-11.3-3.7-23.2-3-34.7-3.6
		c-43.3-1.9-85.9,2.4-127.6,15.1c-24.2,7.4-47.1,17.2-68.5,30.7c-29.1,18.4-53.3,41.8-72.1,70.8c-15.5,23.9-25.9,49.8-32.2,77.5
		c-3.2,14.3-4.7,28.7-5.1,43.3c-0.5,17.8,0.7,35.5,5,52.9c1.5,5.8,4,11.3,5.6,17c4.6,16.7,13.3,30.8,25.5,42.8
		c6.4,6.3,14.3,7.8,23.1,4.4c8.5-3.3,15.6-8.6,22.2-14.7c17.2-15.7,31.5-34,46.7-51.5c13.3-15.2,26.3-30.7,42.5-43.1
		c7.6-5.8,15.6-11.2,25.2-13.1c14.5-2.9,26.1,2.8,36.4,12.5c11.6,10.8,20.5,23.9,30.9,35.7c14.5,16.5,31.7,22.5,52.7,14.9
		c15.9-5.7,27.7-16.5,37.3-30.1c15.3-21.7,24.4-46.4,34.5-70.5c6-14.2,11.8-28.6,19.9-41.9c3.2-5.2,7.4-5.8,12.4-2.2
		c4.6,3.3,6.5,8.2,7.9,13.3c4.4,16.8,3.3,33.8-0.3,50.5c-1.6,7.4-3.6,14.5-6,21.5c-0.3,0.6-0.6,1.2-0.8,1.8
		c-39.8,113.5-177.6,176.6-177.6,176.6c0.6-0.2,1.2-0.3,1.9-0.5c1.6,0,2.3,0.1,2.9,0c17.3-4.3,34-10.5,50.3-17.6
		c0.9-0.4,1.9-1.4,1.8-2.6c0-0.1,0-0.2,0-0.3c1-0.5,1.9-1,2.9-1.4c0,0.4,0.1,0.8,0.2,1.3c1.5-0.8,3.5-0.8,3.8-2.9
		c0-0.1,0-0.2-0.1-0.4c0.9-0.4,1.7-0.9,2.5-1.3c0.7,0.6,1.5,0.6,2.3,0c0.4-0.3,1.1-1.2,1-1.3c-0.1-0.1-0.2-0.2-0.3-0.3
		c1-0.5,2-1.1,3-1.7c0.3,0.1,0.6,0.2,0.8,0.2c1.8-0.1,3.4-0.8,4-2.7c0-0.1-0.1-0.2-0.1-0.2c0.7-0.4,1.5-0.9,2.2-1.3
		c0.3,0.6,0.7,0.9,1.3,0.5c0.6-0.5,1.3-1.1,1.5-1.8c0-0.1,0-0.2,0-0.3c1-0.6,2-1.3,3-1.9c0.6,0.4,1.3,0.5,2.2-0.2
		c9.3-6.8,18.8-13.5,27.7-21.6c28.6-23.9,48.4-50.3,61.8-73.1c0.2-0.3,0.4-0.6,0.6-1C476.3,351.7,480.8,342.8,484.2,335z"/>
</g>
</svg>
