<?xml version="1.0" encoding="utf-8"?>
<!-- Generator: Adobe Illustrator 21.0.2, SVG Export Plug-In . SVG Version: 6.00 Build 0)  -->
<svg version="1.1" id="Capa_1" xmlns="http://www.w3.org/2000/svg" xmlns:xlink="http://www.w3.org/1999/xlink" x="0px" y="0px"
	 viewBox="0 0 512 512" style="enable-background:new 0 0 512 512;" xml:space="preserve">
<style type="text/css">
	.st0{fill:#20D34A;}
</style>
<g>
	<g>
		<g>
			<path class="st0" d="M311.4,112.5c-9.6-10.8-24.5-16.9-41-16.9c-29.4,0-55.7,20.1-58.6,44.8c-1.3,11.3,2.2,22.3,9.9,30.9
				c9.4,10.6,24.2,16.6,40.6,16.6c30.2,0,56.1-19.7,59-44.8C322.6,131.9,319.1,121.1,311.4,112.5z M297.7,140.3
				c-1.5,12.9-17.7,23.8-35.4,23.8c-9.5,0-18-3.2-22.9-8.7c-3.2-3.6-4.5-7.7-4-12.3c1.5-12.7,17.8-23.8,35-23.8
				c9.5,0,18.2,3.4,23.2,9C295.9,130.7,298.3,134.8,297.7,140.3z"/>
		</g>
	</g>
	<g>
		<g>
			<path class="st0" d="M300.2,365.6c-3-2-9.9-6.6-4.3-39c0.1-0.7,0.7-3.3,1.6-7.4c2-9.2,5.7-26.4,9.7-45.6c0,0,0-0.1,0-0.1
				c4.1-20.7,0.9-38.8-9.4-52.4c-9.3-12.2-23.9-19.8-41.3-21.1c-25.7-2.1-52.5,13.3-60.8,28.4c-3.8,6.7-2,12.1-0.5,14.8
				c1.8,3.3,4.4,5.1,6.3,6.5c2.9,2.1,9.7,6.9,3.3,39.2c-0.6,3-9.7,49-10.9,55.5c0,0,0,0.1,0,0.1c-3.6,20.8,0,39,10.8,52.1
				c17.4,21.1,43.9,20.1,44.9,20.1c24.7,0,49.4-15.3,56.9-30c3.6-6.8,1.7-12.2,0.2-14.8C304.8,368.7,302.1,366.9,300.2,365.6z
				 M283.9,268.9c-4,19.1-7.7,36.2-9.7,45.4c-1.3,6.3-1.6,7.5-1.7,8c0,0,0,0.1,0,0.1c-6,34.6,0.1,49.8,8.7,58.3
				c-2.4,2.1-5.6,4.4-9.6,6.4c-7.9,4.1-16.6,6.2-23.9,5.8c-10.7-0.6-19.2-4.4-24.6-11.2c-6.3-7.8-8.3-19.3-5.9-33.2
				c1.3-7,10.4-53.1,10.7-54.9c0,0,0-0.1,0-0.1c6.9-34.5,1.2-49.8-7.2-58.5c2.4-2,5.7-4.2,9.8-6.2c8-3.8,16.7-5.7,24.1-5.1
				c10.7,0.8,19.1,4.9,24.2,11.8C284.9,243.5,286.7,255,283.9,268.9z"/>
		</g>
	</g>
	<g>
		<g>
			<path class="st0" d="M452.7,390.2c32.7-39.2,50.6-87.7,50.6-137.1c0-60.6-25.9-117.6-72.8-160.3C383.8,50.3,321.8,26.9,256,26.9
				S128.2,50.3,81.6,92.8c-47,42.8-72.8,99.7-72.8,160.3s25.9,117.6,72.8,160.3c46.7,42.5,108.6,65.9,174.4,65.9
				c41.2,0,81.7-9.4,117.7-27.2l86.2,32.3c1.4,0.5,2.8,0.8,4.2,0.8c2.9,0,5.8-1.1,8.1-3.1c3.3-3,4.6-7.7,3.4-12L452.7,390.2z
				 M377.1,428c-3.2-1.2-6.7-1-9.7,0.6c-33.7,17.6-72.3,27-111.5,27c-123.3,0-223.5-90.8-223.5-202.5S132.7,50.6,256,50.6
				s223.5,90.8,223.5,202.5c0,46.5-16.9,90.2-48.9,126.4c-2.7,3-3.6,7.2-2.5,11.1l18.1,63.3L377.1,428z"/>
		</g>
	</g>
</g>
</svg>
