<?xml version="1.0" encoding="utf-8"?>
<!-- Generator: Adobe Illustrator 21.0.2, SVG Export Plug-In . SVG Version: 6.00 Build 0)  -->
<svg version="1.1" id="Capa_1" xmlns="http://www.w3.org/2000/svg" xmlns:xlink="http://www.w3.org/1999/xlink" x="0px" y="0px"
	 viewBox="0 0 512 512" style="enable-background:new 0 0 512 512;" xml:space="preserve">
<style type="text/css">
	.st0{fill:#20D34A;}
</style>
<g>
	<path class="st0" d="M393.3,344h-29.6v-26.7h43.7c7.4,0,12.9-5.5,12.9-12.8v-4.6c0-86.6-66.6-157.9-151.6-165.2v-17.3
		c8.3,0,13.6-6,13.6-13.3c0-7.4-5.7-13.3-13.1-13.3h-26.7c-7.4,0-13.6,6-13.6,13.3c0,7.4,6.4,13.3,13.1,13.3v17.2
		c-85,6.3-153.3,78.1-153.3,165.3v4.6c0,7.4,6.4,12.8,13.7,12.8h41.2V344h-25.4c-20.7,0-37.9,16.3-37.9,36.9v29.2
		c0,7.4,6.4,13.9,13.7,13.9h323.2c7.4,0,12.9-6.5,12.9-13.9V381C430.4,360.3,414,344,393.3,344z M240.3,184.5
		c7.3-0.9,14,4.2,14.9,11.5c0.9,7.3-4.2,14-11.5,14.9c-28.3,3.7-54.3,21.4-67.8,46.4c-2.4,4.4-7,7-11.7,7c-2.1,0-4.3-0.5-6.4-1.6
		c-6.5-3.5-8.9-11.6-5.3-18.1C170,212.2,203.7,189.2,240.3,184.5z M170.5,317.4h166.6V344H170.5C170.5,344,170.5,317.4,170.5,317.4z
		"/>
	<path class="st0" d="M111.3,131c2.6,3.1,6.4,4.8,10.2,4.8c3,0,6.1-1,8.6-3.1c5.6-4.7,6.4-13.1,1.6-18.8l-17.1-20.4
		c-4.7-5.6-13.1-6.4-18.8-1.6c-5.6,4.7-6.4,13.1-1.6,18.8L111.3,131z"/>
	<path class="st0" d="M85.4,186.2c3.7-6.4,1.5-14.5-4.9-18.2l-23.1-13.3c-6.4-3.7-14.5-1.5-18.2,4.9c-3.7,6.4-1.5,14.5,4.9,18.2
		l23.1,13.3c2.1,1.2,4.4,1.8,6.7,1.8C78.4,192.9,82.9,190.5,85.4,186.2z"/>
	<path class="st0" d="M50.9,236.5l-26.3-4.6c-7.2-1.3-14.2,3.6-15.4,10.8c-1.3,7.2,3.6,14.2,10.8,15.4l26.3,4.6
		c0.8,0.1,1.6,0.2,2.3,0.2c6.3,0,12-4.5,13.1-11C62.9,244.6,58.1,237.7,50.9,236.5z"/>
	<path class="st0" d="M502.8,241.1c-1.3-7.3-8.2-12.1-15.4-10.8l-26.3,4.6c-7.3,1.3-12.1,8.2-10.8,15.4c1.1,6.5,6.8,11,13.1,11
		c0.8,0,1.5-0.1,2.3-0.2l26.3-4.6C499.3,255.3,504.1,248.3,502.8,241.1z"/>
	<path class="st0" d="M472.3,158.4c-3.7-6.4-11.8-8.6-18.2-4.9L431,166.8c-6.4,3.7-8.6,11.8-4.9,18.2c2.5,4.3,6.9,6.7,11.6,6.7
		c2.3,0,4.6-0.6,6.6-1.8l23.1-13.3C473.8,172.9,476,164.8,472.3,158.4z"/>
	<path class="st0" d="M381.1,132c2.5,2.1,5.5,3.1,8.6,3.1c3.8,0,7.6-1.6,10.2-4.8l17.1-20.4c4.7-5.6,4-14-1.6-18.8
		c-5.6-4.7-14-4-18.8,1.6l-17.1,20.4C374.7,118.8,375.5,127.2,381.1,132z"/>
</g>
</svg>
