<?xml version="1.0" encoding="utf-8"?>
<!-- Generator: Adobe Illustrator 21.0.2, SVG Export Plug-In . SVG Version: 6.00 Build 0)  -->
<svg version="1.1" id="Capa_1" xmlns="http://www.w3.org/2000/svg" xmlns:xlink="http://www.w3.org/1999/xlink" x="0px" y="0px"
	 viewBox="0 0 512 512" style="enable-background:new 0 0 512 512;" xml:space="preserve">
<style type="text/css">
	.st0{fill:#20D34A;}
</style>
<g>
	<g>
		<path class="st0" d="M475.2,239.5c0-38.1-31.1-69.1-69.2-69.1s-69.2,31-69.2,69.1c0,34.3,24.9,62.5,57.6,68V380
			c0,56.5-45.9,102.4-102.4,102.4S189.6,436.5,189.6,380l-0.2-83.1c26.8-3.6,53-19.3,76.3-46c3.4-3.9,4.5-9,3.9-13.8
			c30.5-40.3,49.4-95.1,49.4-137.3c0-65.1-29.2-71.8-77.4-82.9l-0.1-0.1c-3-6-9-10.3-16.2-10.3c-10.2,0-18.5,8.3-18.5,18.3
			c0,10.2,8.3,18.4,18.5,18.4c4,0,7.8-1.7,10.8-4.1l0.4,0.2c46.8,10.7,59.5,13.7,59.5,60.4c0,37.1-17.5,86.7-44.4,122.6
			c-4.4,0.3-8.8,2.2-12.1,5.9c-13.7,15.9-35.6,34.8-61.5,34.8c-25.8,0-47.7-18.8-61.4-34.6c-3.3-3.7-7.7-5.6-12.1-5.9
			C77.6,186.6,60,136.9,60,99.8c0-46.8,12.4-49.7,59.5-60.4l0.2-0.1c3.2,2.4,6.8,4.1,11,4.1c10.2,0,18.4-8.3,18.4-18.4
			c0-10.1-8.3-18.3-18.5-18.3c-7.3,0-13.3,4.3-16.4,10.3l0,0C66,27.9,36.8,34.6,36.8,99.8c0,42.2,19,97.2,49.7,137.5
			c-0.6,4.8,0.5,9.9,3.9,13.8c23.3,26.6,49.2,42.2,76,45.8l0,83.1c0,69.2,56.4,125.5,125.6,125.5S417.4,449.2,417.4,380v-72.5
			C450.1,302,475.2,273.8,475.2,239.5z M406,285.7c-25.4,0-46.2-20.7-46.2-46.2c0-25.4,20.8-46.1,46.2-46.1c25.4,0,46,20.7,46,46.1
			C452,265,431.4,285.7,406,285.7z"/>
		<path class="st0" d="M406,205c-19.1,0-34.6,15.4-34.6,34.5c0,19.2,15.5,34.6,34.6,34.6c19.1,0,34.6-15.4,34.6-34.6
			C440.6,220.4,425.1,205,406,205z"/>
	</g>
</g>
</svg>
