<?xml version="1.0" encoding="utf-8"?>
<!-- Generator: Adobe Illustrator 21.0.2, SVG Export Plug-In . SVG Version: 6.00 Build 0)  -->
<svg version="1.1" id="Capa_1" xmlns="http://www.w3.org/2000/svg" xmlns:xlink="http://www.w3.org/1999/xlink" x="0px" y="0px"
	 viewBox="0 0 512 512" style="enable-background:new 0 0 512 512;" xml:space="preserve">
<style type="text/css">
	.st0{fill:#20D34A;}
</style>
<g>
	<g>
		<path class="st0" d="M464.8,64h-160V48c0-17.6-14.4-32-32-32h-224c-17.6,0-32,14.4-32,32v176c0,88,84,88,112,88c4.8,0,8-3.2,8-8
			s-3.2-8-8-8c-17.6,0-32-14.4-32-32c0-0.8,0-2.4,0-3.2c2.4-16.8,16.8-28.8,33.6-28.8h110.4v16h-72c-4.8,0-8,3.2-8,8
			c0,18.4,7.2,36,19.2,48.8c-2.4,8-3.2,15.2-3.2,23.2c0,32,19.2,60.8,48,73.6c0,4.8-2.4,14.4-24,14.4c-22.4,0-40,17.6-40,40v40h16
			v-40c0-12.8,9.6-23.2,22.4-24l39.2,19.2c3.2,1.6,7.2,3.2,10.4,4V496h16v-40.8c4-0.8,7.2-1.6,10.4-3.2l39.2-19.2
			c12.8,0.8,22.4,11.2,22.4,24v40h16v-40c0-22.4-17.6-40-40-40c-21.6,0-24-9.6-24-14.4c30.4-12.8,48.8-43.2,48-76c0-1.6,0-4.8,0-5.6
			c0-11.2-2.4-22.4-8-32h53.6c16.8,0,31.2,12,33.6,28.8c1.6,17.6-11.2,33.6-28.8,35.2c-0.8,0-2.4,0-3.2,0c-4.8,0-8,3.2-8,8
			s3.2,8,8,8c28,0,112,0,112-88V96C496.8,78.4,482.4,64,464.8,64z M130.4,216c-24.8,0-46.4,18.4-49.6,43.2c-0.8,12,2.4,24,9.6,33.6
			c-39.2-8-57.6-29.6-57.6-68.8V48c0-8.8,7.2-16,16-16h224c8.8,0,16,7.2,16,16v152c0,8.8-7.2,16-16,16H130.4z M177.6,264h87.2
			c28,0,51.2,20.8,55.2,48h-87.2C204.8,312,181.6,291.2,177.6,264z M278.4,388c-3.2,0.8-5.6,4-5.6,7.2v4.8
			c-0.8,11.2,5.6,22.4,16,27.2L268,437.6c-7.2,3.2-16,3.2-23.2,0l-20-10.4c10.4-4.8,16.8-16,16-27.2v-4c0-3.2-2.4-6.4-5.6-7.2
			c-25.6-9.6-42.4-33.6-42.4-60.8c0-4,0-8,0.8-11.2c11.2,7.2,24.8,11.2,39.2,11.2h88C320.8,355.2,304,379.2,278.4,388z M480.8,280
			c0,39.2-18.4,60.8-57.6,68.8c7.2-9.6,10.4-21.6,9.6-33.6c-3.2-24.8-24-43.2-49.6-43.2h-64.8c-13.6-15.2-32.8-24-53.6-24h-8v-16h16
			c17.6,0,32-14.4,32-32V80h160c8.8,0,16,7.2,16,16L480.8,280L480.8,280z"/>
	</g>
</g>
<g>
	<g>
		<path class="st0" d="M200.8,104h-8c-4.8,0-8-3.2-8-8V72c0-13.6-10.4-24-24-24s-24,10.4-24,24v24c0,4.8-3.2,8-8,8c0-4.8-3.2-8-8-8
			h-32c-4.8,0-8,3.2-8,8v88c0,4.8,3.2,8,8,8h32c4.8,0,8-3.2,8-8h72c13.6,0,24-10.4,24-24v-40C224.8,114.4,214.4,104,200.8,104z
			 M112.8,184h-16v-72h16V184z M208.8,168c0,4.8-3.2,8-8,8h-72v-56c13.6,0,24-10.4,24-24V72c0-4.8,3.2-8,8-8s8,3.2,8,8v24
			c0,13.6,10.4,24,24,24h8c4.8,0,8,3.2,8,8V168z"/>
	</g>
</g>
<g>
	<g>
		<path class="st0" d="M456.8,96h-32c-4.8,0-8,3.2-8,8h-72c-13.6,0-24,10.4-24,24v40c0,13.6,10.4,24,24,24h8c4.8,0,8,3.2,8,8v24
			c0,13.6,10.4,24,24,24s24-10.4,24-24v-24c0-4.8,3.2-8,8-8c0,4.8,3.2,8,8,8h32c4.8,0,8-3.2,8-8v-88C464.8,99.2,461.6,96,456.8,96z
			 M416.8,176c-13.6,0-24,10.4-24,24v24c0,4.8-3.2,8-8,8s-8-3.2-8-8v-24c0-13.6-10.4-24-24-24h-8c-4.8,0-8-3.2-8-8v-40
			c0-4.8,3.2-8,8-8h72V176z M448.8,184h-16v-72h16V184z"/>
	</g>
</g>
<g>
	<g>
		<polygon class="st0" points="232.8,56 232.8,48 216.8,48 216.8,56 208.8,56 208.8,72 216.8,72 216.8,80 232.8,80 232.8,72 
			240.8,72 240.8,56 		"/>
	</g>
</g>
</svg>
