<?xml version="1.0" encoding="utf-8"?>
<!-- Generator: Adobe Illustrator 21.0.2, SVG Export Plug-In . SVG Version: 6.00 Build 0)  -->
<svg version="1.1" id="Capa_1" xmlns="http://www.w3.org/2000/svg" xmlns:xlink="http://www.w3.org/1999/xlink" x="0px" y="0px"
	 viewBox="0 0 512 512" style="enable-background:new 0 0 512 512;" xml:space="preserve">
<style type="text/css">
	.st0{fill:#20D34A;}
</style>
<g>
	<path class="st0" d="M471.6,375.9l-17.5-27.6c-2.8-4.5-8.8-5.8-13.3-3c-4.5,2.8-5.8,8.8-3,13.3l17.5,27.6
		c3.1,4.9,2.4,11.4-1.8,15.5c-2.6,2.6-6.2,3.9-9.8,3.5c-3.6-0.3-6.9-2.2-9.1-5.2L359.3,293l-29.9-71.2v-8.4c0-5.3-4.3-9.6-9.6-9.6
		c-5.3,0-9.6,4.3-9.6,9.6v128.3H201.8V223.8c0,0,0-0.1,0-0.1v-10.3c0-5.3-4.3-9.6-9.6-9.6s-9.6,4.3-9.6,9.6v8.5L152.7,293
		L77.4,400.1c-2.1,3-5.4,4.9-9.1,5.2c-3.6,0.3-7.2-1-9.8-3.5c-4.1-4.1-4.9-10.6-1.8-15.5l66.9-105.6c0.4-0.7,0.7-1.4,1-2.1
		l28.6-85.1c10.1-30,38.1-50.1,69.7-50.1h66c31.6,0,59.7,20.1,69.7,50.1l28.6,85.1c0.2,0.7,0.6,1.4,1,2.1l13.1,20.6
		c1.8,2.9,5,4.5,8.1,4.5c1.8,0,3.5-0.5,5.1-1.5c4.5-2.8,5.8-8.8,3-13.3l-12.5-19.7l-28.2-84c-11.6-34.4-41.9-58.6-77.3-62.6
		c10.5-10.9,16.9-25.7,16.9-42V70.1c0-33.4-27.2-60.6-60.6-60.6c-33.4,0-60.6,27.2-60.6,60.6v12.6c0,16.3,6.5,31.1,16.9,42
		c-35.4,4.1-65.8,28.2-77.3,62.6l-28.2,84L40.4,375.9c-7.9,12.5-6,29.1,4.5,39.5c4.8,4.7,10.9,7.7,17.4,8.7c0,0,0,0,0,0
		c-5.1,13.6-4.9,28.5,0.5,42c9,22.3,30.6,36.3,53.8,36.3c5,0,10-0.6,15-2L256,467.1l124.3,33.5c5,1.4,10.1,2,15,2
		c23.1,0,44.7-13.9,53.8-36.3c5.4-13.5,5.6-28.4,0.6-42c0,0,0,0,0,0c6.5-1,12.6-4,17.4-8.7C477.6,405.1,479.5,388.5,471.6,375.9z
		 M214.6,70.1c0-22.8,18.6-41.4,41.4-41.4c22.8,0,41.4,18.6,41.4,41.4v12.6c0,22.8-18.6,41.4-41.4,41.4c-22.8,0-41.4-18.6-41.4-41.4
		V70.1z M342,301.4c0.3,0.6,0.6,1.3,1,1.8l54.3,77.2l-67.8-34.6v-74.3L342,301.4z M169,303.2c0.4-0.6,0.7-1.2,1-1.8l12.5-29.7v74.2
		l-67.8,34.6L169,303.2z M431.3,459c-7.3,18.1-27.1,28-46,22.9l-97.4-26.2c7.8-6.2,12.7-15.7,12.7-26.1c0-0.4,0-0.7,0-1.1l60.2,14.2
		c0.7,0.2,1.5,0.3,2.2,0.3c4.4,0,8.3-3,9.4-7.4c1.2-5.2-2-10.4-7.2-11.6l-72-17c-0.6-0.1-1.1-0.2-1.7-0.2c-1.1-1.1-2.2-2.2-3.4-3.2
		c-8-6.3-18.3-8.6-28.2-6.3L146.8,424c-5.2,1.2-8.4,6.4-7.2,11.6s6.4,8.4,11.6,7.2l112.9-26.7c4.2-1,8.5,0,11.8,2.6
		c3.4,2.7,5.3,6.6,5.3,10.9c0,6.3-4.2,11.8-10.3,13.4l-17.1,4.6c-0.2,0-0.4,0.1-0.6,0.2l-126.6,34.1c-18.9,5.1-38.6-4.8-46-22.9
		c-7.6-18.7,0.3-39.8,18.3-49l96.3-49.1h121.4l96.3,49.1C431,419.2,438.8,440.3,431.3,459z"/>
	<path class="st0" d="M419.9,330.9c1.9,1.9,4.3,2.8,6.8,2.8c2.5,0,4.9-0.9,6.8-2.8l0.4-0.4c3.8-3.8,3.8-9.9,0-13.6
		c-3.8-3.8-9.9-3.8-13.6,0l-0.4,0.4C416.2,321,416.1,327.1,419.9,330.9z"/>
</g>
</svg>
