<?xml version="1.0" encoding="utf-8"?>
<!-- Generator: Adobe Illustrator 21.0.2, SVG Export Plug-In . SVG Version: 6.00 Build 0)  -->
<svg version="1.1" id="Capa_1" xmlns="http://www.w3.org/2000/svg" xmlns:xlink="http://www.w3.org/1999/xlink" x="0px" y="0px"
	 viewBox="0 0 512 512" style="enable-background:new 0 0 512 512;" xml:space="preserve">
<style type="text/css">
	.st0{fill:#20D34A;}
</style>
<g>
	<path class="st0" d="M256,286.8c33.2,0,111.1-39.9,111.1-135.5C367.1,76.3,357,15.7,256,15.7c-101,0-111.1,60.7-111.1,135.5
		C144.9,246.8,222.8,286.8,256,286.8z M161.5,128.6c7.8-15.1,24.7-32.5,61-31.8c0,0,21.6,52.5,127.9,28.9c0.4,8.4,0.6,16.9,0.6,25.5
		c0,46.7-20.6,75.7-38,91.8c-21.8,20.2-46,27.6-57,27.6c-11,0-35.2-7.3-57-27.6c-17.3-16.1-38-45-38-91.8
		C161,143.6,161.1,136.1,161.5,128.6z"/>
	<path class="st0" d="M462.3,425.8c-5.7-35.3-17.4-80.7-40.8-96.9c-16-11-71.8-40.9-95.7-53.6l-0.4-0.2c-2.7-1.5-6.1-1.2-8.5,0.7
		c-12.5,9.8-26.2,16.4-40.7,19.6c-2.6,0.6-4.7,2.4-5.6,4.8L256,339.2l-14.8-38.9c-0.9-2.5-3-4.3-5.6-4.8
		c-14.5-3.2-28.2-9.8-40.7-19.6c-2.4-1.9-5.8-2.2-8.5-0.7c-23.6,12.6-80.1,43-96,53.8c-27,18.2-38.8,83.9-40.9,96.9
		c-0.2,1.3-0.1,2.6,0.3,3.8c1,2.7,25.7,66.7,206,66.7s205-64,206-66.7C462.4,428.4,462.5,427.1,462.3,425.8z M379.3,404.2l-35.3,11
		l-35.3-11v-19h70.6V404.2z"/>
</g>
</svg>
